<svg width="40" height="41" viewBox="0 0 40 41" fill="none" xmlns="http://www.w3.org/2000/svg">
<path d="M35.9999 22.9697V21.6363C36.3679 21.6363 36.6666 21.3379 36.6666 20.9697V16.9697C36.6666 16.6014 36.3679 16.303 35.9999 16.303H32.3999L32.2708 15.8022C31.976 14.6569 31.5182 13.5598 30.9106 12.5449L30.644 12.0988L33.1999 9.53846C33.4572 9.28065 33.4572 8.86294 33.1999 8.60513L30.3687 5.76972C30.1072 5.5205 29.6966 5.5205 29.4351 5.76972L26.8744 8.33039L26.4286 8.06372C25.4122 7.45591 24.314 6.9981 23.1671 6.70305L22.6666 6.57284V2.96973C22.6666 2.6015 22.3682 2.30306 22 2.30306H18C17.6317 2.30306 17.3333 2.6015 17.3333 2.96973V6.56972L16.8325 6.69914C15.6872 6.99367 14.5901 7.45149 13.5747 8.05826L13.1286 8.32518L10.5687 5.76972C10.307 5.51842 9.89373 5.51842 9.63202 5.76972L6.79999 8.60096C6.67551 8.72518 6.60546 8.89393 6.60546 9.06971C6.60546 9.24575 6.67551 9.41424 6.79999 9.53846L9.36066 12.0988L9.094 12.5449C8.48671 13.5598 8.02863 14.6569 7.7341 15.8022L7.60337 16.303H4C3.63177 16.303 3.33333 16.6014 3.33333 16.9697V20.9697C3.33333 21.3379 3.63177 21.6363 4 21.6363V22.9697C2.89557 22.9697 2 22.0741 2 20.9697V16.9697C2 15.8652 2.89557 14.9697 4 14.9697H6.57942C6.85442 14.0478 7.22629 13.1577 7.68879 12.3145L5.85546 10.4812C5.48046 10.1069 5.26978 9.59914 5.26978 9.06971C5.26978 8.54029 5.48046 8.03247 5.85546 7.65852L8.68879 4.82519C9.47811 4.06972 10.7226 4.06972 11.512 4.82519L13.3448 6.65774C14.188 6.1955 15.0784 5.82441 16 5.54967V2.96973C16 1.8653 16.8955 0.969727 18 0.969727H22C23.1044 0.969727 24 1.8653 24 2.96973V5.54967C24.9218 5.82441 25.8117 6.19628 26.6552 6.65852L28.4885 4.82519C29.2781 4.06972 30.5223 4.06972 31.3119 4.82519L34.1447 7.65774C34.5195 8.03195 34.7299 8.53924 34.7299 9.06893C34.7299 9.59862 34.5195 10.1064 34.1447 10.4804L32.3114 12.3137C32.7736 13.1574 33.1452 14.0478 33.4205 14.9697H35.9999C37.1044 14.9697 37.9999 15.8652 37.9999 16.9697V20.9697C37.9999 22.0741 37.1044 22.9697 35.9999 22.9697Z" fill="#4681DD"/>
<path d="M29.3336 18.969H28.0003C28.0003 14.5508 24.4185 10.9691 20.0003 10.9691C15.5821 10.9691 12.0003 14.5508 12.0003 18.969H10.667C10.667 13.8144 14.8456 9.63574 20.0003 9.63574C25.1547 9.63574 29.3336 13.8144 29.3336 18.969Z" fill="#4681DD"/>
<path d="M20 24.3037C17.7909 24.3037 16 22.5125 16 20.3037C16 18.0946 17.7909 16.3037 20 16.3037C22.2094 16.3037 24 18.0946 24 20.3037C23.9976 22.512 22.2083 24.3013 20 24.3037ZM20 17.637C18.5273 17.637 17.3333 18.831 17.3333 20.3037C17.3333 21.7763 18.5273 22.9703 20 22.9703C21.4726 22.9703 22.6667 21.7763 22.6667 20.3037C22.6667 18.831 21.4726 17.637 20 17.637Z" fill="#4681DD"/>
<path d="M31.333 26.9697C29.1239 26.9697 27.333 25.1785 27.333 22.9697C27.333 20.7606 29.1239 18.9697 31.333 18.9697C33.5421 18.9697 35.333 20.7606 35.333 22.9697C35.3306 25.178 33.5413 26.9673 31.333 26.9697ZM31.333 20.303C29.8603 20.303 28.6663 21.497 28.6663 22.9697C28.6663 24.4423 29.8603 25.6364 31.333 25.6364C32.8057 25.6364 33.9997 24.4423 33.9997 22.9697C33.9997 21.497 32.8057 20.303 31.333 20.303Z" fill="#4681DD"/>
<path d="M8.66698 26.9697C6.45787 26.9697 4.66699 25.1785 4.66699 22.9697C4.66699 20.7606 6.45787 18.9697 8.66698 18.9697C10.8764 18.9697 12.667 20.7606 12.667 22.9697C12.6646 25.178 10.8753 26.9673 8.66698 26.9697ZM8.66698 20.303C7.19433 20.303 6.00032 21.497 6.00032 22.9697C6.00032 24.4423 7.19433 25.6364 8.66698 25.6364C10.1396 25.6364 11.3336 24.4423 11.3336 22.9697C11.3336 21.497 10.1396 20.303 8.66698 20.303Z" fill="#4681DD"/>
<path d="M37.377 28.6802C36.3835 27.9974 35.2057 27.6331 33.9999 27.6365H28.6666C28.3424 27.6394 28.0187 27.6688 27.6992 27.7243C27.2726 27.0571 26.7177 26.4816 26.0666 26.0303C25.969 25.9566 25.8664 25.8896 25.7593 25.8305C24.8268 25.2657 23.7567 24.9683 22.6666 24.9698H17.3333C15.2945 24.9625 13.3948 26.0029 12.3026 27.7243C11.9823 27.6688 11.658 27.6394 11.3333 27.6365H5.99999C4.7953 27.6331 3.6177 27.9969 2.62473 28.6789C0.983592 29.7956 0.00104166 31.6516 0 33.6365V36.3031C0.00234373 38.1235 1.06146 39.7766 2.71484 40.5391C3.32525 40.8266 3.99218 40.9737 4.66666 40.9698H11.3333V39.6365H5.33332V32.3032H3.99999V39.5695C3.74895 39.5193 3.5052 39.438 3.27395 39.3284C2.09296 38.7839 1.33593 37.6034 1.33333 36.3031V33.6365C1.33489 32.0917 2.10026 30.6477 3.37734 29.7789C4.14895 29.2493 5.06379 28.9672 5.99999 28.9698H11.3333C11.4508 28.9698 11.564 28.9823 11.6786 28.9901C11.4531 29.6261 11.3362 30.2953 11.3333 30.9698V37.6365C11.3357 39.4766 12.8268 40.9675 14.6666 40.9698H16.6666V30.3032H15.3333V39.6365H14.6666C13.5622 39.6365 12.6666 38.7409 12.6666 37.6365V30.9698C12.6666 28.3922 14.7562 26.3032 17.3333 26.3032H22.6666C23.5244 26.3037 24.3651 26.5412 25.0966 26.9891C25.1643 27.0261 25.2294 27.0678 25.2911 27.1136C25.9158 27.5414 26.4286 28.1131 26.7859 28.7802C27.145 29.4542 27.3333 30.206 27.3333 30.9698V37.6365C27.3333 38.7409 26.4377 39.6365 25.3333 39.6365H24.6666V30.3032H23.3333V40.9698H25.3333C27.1734 40.9675 28.6643 39.4766 28.6666 37.6365V30.9698C28.6635 30.2953 28.5471 29.6263 28.3218 28.9901C28.4367 28.9823 28.5499 28.9698 28.6666 28.9698H33.9999C34.9366 28.9672 35.8523 29.25 36.6244 29.7802C37.9004 30.6495 38.6648 32.0925 38.6666 33.6365V36.3031C38.6642 37.6081 37.9015 38.7919 36.7148 39.3336C36.4869 39.4414 36.2468 39.5206 35.9999 39.5695V32.3032H34.6666V39.6365H28.6666V40.9698H35.3333C36.0038 40.974 36.6669 40.8287 37.2739 40.5443C38.9327 39.7841 39.9973 38.1279 39.9999 36.3031V33.6365C39.9989 31.6524 39.0171 29.7972 37.377 28.6802Z" fill="#4681DD"/>
<path d="M17.333 39.6357H22.6663V40.969H17.333V39.6357Z" fill="#4681DD"/>
</svg>
