<svg width="49" height="49" viewBox="0 0 49 49" fill="none" xmlns="http://www.w3.org/2000/svg">
<path d="M29.3699 24.1025C29.3699 22.6703 28.8123 21.3244 27.7996 20.3118C25.7096 18.2216 22.3086 18.2216 20.2185 20.3118C18.128 22.4019 18.128 25.8028 20.2185 27.8929C21.2633 28.9381 22.6362 29.4605 24.0089 29.4605C25.3819 29.4605 26.7548 28.9381 27.7996 27.8929C28.8123 26.8807 29.3699 25.5342 29.3699 24.1025ZM21.2132 26.8978C20.4666 26.1513 20.0551 25.1583 20.0551 24.1022C20.0551 23.0463 20.4666 22.0534 21.2132 21.3064C21.984 20.5356 22.9962 20.1502 24.0089 20.1502C25.0215 20.1502 26.0342 20.5359 26.8046 21.3064C27.5517 22.0534 27.9627 23.0462 27.9627 24.1022C27.9627 25.1583 27.5517 26.1512 26.8046 26.8978C25.2629 28.4399 22.7548 28.4399 21.2132 26.8978Z" fill="white"/>
<path d="M47.5123 8.17138C46.8961 6.74954 45.7734 5.18373 44.3516 3.7618C42.9301 2.34033 41.364 1.21777 39.9425 0.601573C38.3455 -0.0908717 37.0526 -0.0737083 36.2909 0.644059C36.2803 0.652831 36.27 0.661997 36.2601 0.67154C36.2569 0.674822 36.2528 0.677823 36.2495 0.681106C36.2449 0.686171 36.2407 0.691704 36.2357 0.696487C36.2309 0.701927 36.2253 0.706804 36.2207 0.712244L36.1338 0.810441C36.1279 0.817382 36.1213 0.823572 36.1154 0.830887L31.7539 5.75294C31.6926 5.82207 31.6455 5.9026 31.6154 5.98993C31.5853 6.07725 31.5726 6.16966 31.5782 6.26187C31.5838 6.35407 31.6075 6.44428 31.6479 6.52733C31.6884 6.61038 31.7448 6.68464 31.814 6.74588C31.9424 6.86003 32.1082 6.92298 32.28 6.92277C32.3796 6.92298 32.4781 6.90199 32.5689 6.86119C32.6597 6.82039 32.7408 6.76072 32.8068 6.68614L35.8019 3.30607C35.8799 3.61745 35.9909 3.94572 36.1348 4.28833C36.136 4.29114 36.1367 4.29414 36.1382 4.29705C36.14 4.30183 36.1422 4.30624 36.144 4.31102C36.1532 4.33222 36.1609 4.35276 36.17 4.37405C36.1961 4.4337 36.2239 4.49382 36.2514 4.55394C36.2551 4.56125 36.258 4.56857 36.2616 4.57588C36.3046 4.66892 36.3491 4.76125 36.395 4.85284C36.4351 4.9329 36.4762 5.01241 36.5184 5.09135C36.5261 5.1057 36.5331 5.11949 36.5408 5.13384C36.5811 5.20859 36.6228 5.28409 36.6658 5.35921C36.6768 5.37862 36.687 5.39766 36.6983 5.41708C36.7383 5.48667 36.7796 5.55626 36.8218 5.62623C36.8368 5.65118 36.8515 5.67641 36.8669 5.70173C36.9057 5.7655 36.946 5.82928 36.9863 5.89296C37.0064 5.92448 37.0258 5.95599 37.046 5.9875C37.0834 6.045 37.1219 6.10286 37.1603 6.16045C37.1853 6.19815 37.2098 6.23586 37.2354 6.27328C37.271 6.32524 37.3072 6.37738 37.3435 6.42897C37.3739 6.47211 37.4035 6.51544 37.4344 6.55868C37.4677 6.60557 37.5025 6.65247 37.537 6.69936C37.5717 6.74729 37.6062 6.79503 37.642 6.84286C37.6747 6.88619 37.7081 6.92943 37.741 6.97229C37.7802 7.02359 37.8186 7.07489 37.8586 7.12582C37.8909 7.16681 37.9239 7.20789 37.9568 7.2485C37.999 7.30168 38.0403 7.35448 38.0836 7.40719C38.1174 7.44817 38.1521 7.48925 38.1861 7.53024C38.2293 7.58229 38.2722 7.63435 38.3166 7.68631C38.355 7.73132 38.395 7.77644 38.4342 7.82155C38.4752 7.86872 38.5159 7.91599 38.5576 7.96326C38.6064 8.01822 38.6562 8.07243 38.706 8.12739C38.7394 8.16444 38.7723 8.20149 38.8063 8.23807C38.8797 8.3176 38.9544 8.39629 39.0299 8.47507C39.0412 8.48679 39.0519 8.49889 39.0632 8.51071C39.1512 8.60225 39.2402 8.69313 39.3307 8.78317C39.4207 8.87367 39.5117 8.96231 39.6029 9.05028C39.6171 9.06388 39.6315 9.07701 39.6457 9.09061C39.7219 9.16348 39.7985 9.23598 39.8755 9.30707C39.9132 9.34187 39.9509 9.37554 39.9886 9.40968C40.0425 9.45882 40.0964 9.50816 40.1506 9.55627C40.1982 9.59838 40.2463 9.63937 40.2942 9.6812C40.3386 9.72003 40.3828 9.75923 40.4276 9.79731C40.4791 9.84092 40.5308 9.88341 40.5821 9.92627C40.624 9.96106 40.6653 9.99624 40.7071 10.0304C40.7587 10.0725 40.8104 10.1131 40.8621 10.1546C40.9042 10.1882 40.9463 10.2223 40.9884 10.2557C41.0383 10.2945 41.0881 10.3322 41.1379 10.3703C41.1823 10.4044 41.227 10.4387 41.2713 10.4721C41.3178 10.5069 41.3643 10.5403 41.4105 10.5744C41.4592 10.6095 41.5076 10.6454 41.5559 10.6802C41.5974 10.7099 41.6388 10.7381 41.6801 10.7671C41.734 10.8048 41.7879 10.8425 41.8414 10.8792C41.8769 10.9034 41.9124 10.9264 41.9484 10.9503C42.008 10.9902 42.0677 11.0301 42.1275 11.0686C42.1568 11.0877 42.1861 11.1056 42.2154 11.1242C42.2814 11.1661 42.3473 11.2078 42.4133 11.2478C42.4367 11.262 42.4598 11.2756 42.4832 11.2895C42.555 11.3327 42.6268 11.3756 42.6983 11.4167C42.7155 11.4265 42.733 11.4361 42.7503 11.4459C42.8276 11.4895 42.9049 11.5328 42.9818 11.5741C42.9935 11.5804 43.0056 11.5866 43.0177 11.5929C43.0987 11.6364 43.1803 11.6786 43.2625 11.7196C43.3542 11.7657 43.4466 11.8101 43.5399 11.853L43.5559 11.8607C43.6175 11.8888 43.679 11.9174 43.7398 11.9439C43.7622 11.9533 43.7838 11.9614 43.8058 11.971C43.8095 11.9724 43.8132 11.9742 43.8168 11.9757C43.819 11.9768 43.8215 11.9772 43.8238 11.9783C44.1667 12.1226 44.4953 12.2339 44.8074 12.3124L32.1528 23.5261C32.1338 23.4934 32.1144 23.4609 32.0936 23.429C31.9815 23.2553 31.9069 23.0602 31.8746 22.856C31.8423 22.6519 31.853 22.4433 31.906 22.2435C32.2848 20.816 31.5319 19.3382 30.1544 18.8058C29.9616 18.7311 29.7866 18.6169 29.6404 18.4707C29.4942 18.3245 29.3802 18.1494 29.3055 17.9566C28.7731 16.5791 27.2952 15.8266 25.8676 16.205C25.4642 16.3124 25.0322 16.2434 24.6821 16.0174C24.6514 15.9976 24.6202 15.9785 24.5886 15.9602L30.6259 9.14698C30.7496 9.00733 30.8128 8.82425 30.8016 8.63799C30.7904 8.45174 30.7057 8.27755 30.5661 8.15375C30.2749 7.8962 29.8305 7.92303 29.5729 8.21387L23.0685 15.554C22.6465 15.5602 22.231 15.659 21.8513 15.8433C21.4716 16.0277 21.137 16.2931 20.871 16.6208C20.7405 16.7811 20.578 16.9123 20.3939 17.0062C20.2097 17.1001 20.008 17.1545 19.8017 17.1659C19.0904 17.2039 18.4183 17.5035 17.9146 18.0072C17.4109 18.5109 17.1113 19.183 17.0733 19.8943C17.062 20.1007 17.0076 20.3024 16.9137 20.4866C16.8199 20.6707 16.6886 20.8333 16.5282 20.9637C16.2005 21.2297 15.9351 21.5643 15.7507 21.944C15.5664 22.3237 15.4676 22.7392 15.4614 23.1612L0.619265 36.3133C0.608626 36.3226 0.598333 36.3324 0.588408 36.3425C-0.167719 37.0984 -0.19595 38.4099 0.508594 40.0351C1.12516 41.4569 2.24735 43.0228 3.66929 44.4447C5.09066 45.8661 6.65694 46.9887 8.07831 47.6049C8.86126 47.9441 9.57096 48.1138 10.1813 48.1138C10.8382 48.1138 11.3793 47.9174 11.7713 47.5255C11.7812 47.5155 11.791 47.5053 11.8002 47.4946L14.419 44.5396C14.6766 44.2487 14.6498 43.8039 14.3594 43.5464C14.2197 43.4226 14.0366 43.3593 13.8504 43.3705C13.6641 43.3817 13.4899 43.4665 13.3661 43.6061L10.7649 46.5413C10.2114 47.051 7.66076 46.4465 4.66392 43.4497C1.87557 40.6613 0.976413 37.989 1.57169 37.349L15.8673 24.6812C15.8856 24.7123 15.9046 24.7438 15.9245 24.7746C16.0365 24.9483 16.1111 25.1434 16.1435 25.3476C16.1758 25.5517 16.1652 25.7603 16.1124 25.9602C15.7332 27.3879 16.486 28.8658 17.864 29.3981C18.0567 29.4728 18.2317 29.5869 18.3779 29.733C18.524 29.8792 18.6381 30.0543 18.7128 30.247C19.2451 31.6246 20.723 32.3778 22.1504 31.9986C22.5537 31.8917 22.9857 31.9601 23.3363 32.1865C23.3686 32.207 23.4016 32.2254 23.4341 32.2447L15.5372 41.1565C15.4758 41.2256 15.4287 41.3061 15.3985 41.3934C15.3684 41.4807 15.3557 41.5731 15.3612 41.6653C15.3668 41.7575 15.3904 41.8478 15.4309 41.9308C15.4713 42.0139 15.5277 42.0881 15.5969 42.1494C15.666 42.2108 15.7465 42.2579 15.8339 42.2881C15.9212 42.3184 16.0137 42.3311 16.1059 42.3255C16.1982 42.32 16.2884 42.2963 16.3715 42.2558C16.4546 42.2153 16.5289 42.1589 16.5901 42.0896L23.8558 33.8909L25.3433 38.7195C25.3953 38.8883 25.4915 39.0401 25.6219 39.1593C25.7522 39.2784 25.912 39.3606 26.0848 39.3973C26.153 39.4116 26.2218 39.4185 26.29 39.4185C26.5732 39.4185 26.8472 39.2969 27.0373 39.0785L28.9226 36.9156L31.4586 37.675C31.6306 37.7265 31.8134 37.7303 31.9874 37.6859C32.1614 37.6415 32.32 37.5506 32.4463 37.423C32.5729 37.2956 32.6624 37.1363 32.7052 36.9619C32.7481 36.7876 32.7427 36.6049 32.6896 36.4334L31.0644 31.1574L36.3404 32.7826C36.4367 32.8123 36.5353 32.8266 36.633 32.8266C36.8903 32.8266 37.1417 32.7262 37.3303 32.539C37.4579 32.4127 37.5486 32.254 37.5929 32.08C37.6372 31.906 37.6333 31.7232 37.5816 31.5512L36.8225 29.0153L38.9859 27.1304C39.1189 27.0142 39.2186 26.8647 39.2745 26.6972C39.3305 26.5297 39.3407 26.3503 39.3043 26.1775C39.2674 26.0048 39.1852 25.845 39.0661 25.7146C38.947 25.5843 38.7952 25.4881 38.6265 25.4359L33.7978 23.9484L47.4016 11.8934C47.4075 11.8882 47.4126 11.8827 47.4181 11.8773C47.4228 11.8729 47.4281 11.8688 47.4324 11.8644C47.4358 11.8611 47.4387 11.8575 47.442 11.8538C47.4515 11.8439 47.461 11.8333 47.4698 11.8231C48.1875 11.061 48.2044 9.76833 47.5123 8.17138ZM24.7487 31.2339C24.7431 31.2333 24.7377 31.2329 24.7322 31.2325C24.5068 31.2059 24.2907 31.1279 24.1002 31.0046C23.7617 30.7863 23.3813 30.6409 22.9835 30.5779C22.5856 30.5149 22.1789 30.5356 21.7895 30.6386C21.4363 30.7329 21.0608 30.6932 20.7351 30.5272C20.4094 30.3612 20.1565 30.0807 20.0252 29.7396C19.8797 29.364 19.6574 29.0228 19.3726 28.738C19.0877 28.4532 18.7466 28.2309 18.371 28.0854C18.03 27.9541 17.7496 27.7013 17.5837 27.3756C17.4178 27.05 17.3781 26.6745 17.4723 26.3214C17.5753 25.932 17.596 25.5254 17.5329 25.1275C17.4699 24.7297 17.3246 24.3493 17.1063 24.0108C16.9801 23.8157 16.9015 23.5937 16.8769 23.3627C16.8506 23.1171 16.8862 22.8688 16.9803 22.6404C17.0744 22.412 17.2241 22.2108 17.4159 22.0551C17.7282 21.8006 17.984 21.4838 18.1669 21.1249C18.3498 20.7659 18.4558 20.3728 18.478 19.9705C18.4976 19.6055 18.6514 19.2607 18.9099 19.0023C19.1684 18.7438 19.5133 18.5901 19.8783 18.5706C20.2804 18.5483 20.6735 18.4422 21.0324 18.2594C21.3912 18.0765 21.708 17.8208 21.9625 17.5086C22.1186 17.3162 22.3204 17.1661 22.5495 17.0719C22.7787 16.9778 23.0278 16.9426 23.274 16.9696L23.2916 16.9718C23.515 16.9988 23.7293 17.0763 23.9182 17.1986C24.2567 17.4169 24.637 17.5623 25.0348 17.6253C25.4327 17.6883 25.8393 17.6676 26.2287 17.5645C26.5819 17.4703 26.9574 17.51 27.2831 17.6759C27.6088 17.8419 27.8616 18.1225 27.9928 18.4636C28.1384 18.8392 28.3607 19.1802 28.6456 19.465C28.9304 19.7498 29.2714 19.9722 29.647 20.1178C30.3541 20.3911 30.7406 21.1494 30.546 21.8822C30.4429 22.2716 30.4222 22.6783 30.4852 23.0761C30.5482 23.474 30.6936 23.8543 30.912 24.1928C31.0354 24.3832 31.1133 24.5995 31.1395 24.8248C31.1402 24.8303 31.1406 24.8358 31.1414 24.8413C31.1677 25.0868 31.1321 25.335 31.0379 25.5632C30.9437 25.7915 30.7939 25.9926 30.6021 26.1481C30.427 26.2911 30.2694 26.4542 30.1323 26.6339C30.1166 26.6526 30.1012 26.6724 30.0873 26.6932C29.7608 27.1432 29.5708 27.6776 29.54 28.2327C29.525 28.5124 29.4309 28.7822 29.2684 29.0105C29.2546 29.027 29.2413 29.0442 29.2292 29.0621C29.1535 29.1593 29.0659 29.2467 28.9685 29.3223C28.9512 29.3344 28.9344 29.3472 28.9182 29.3608C28.6899 29.5233 28.42 29.6176 28.1401 29.6326C27.5909 29.6633 27.0618 29.8497 26.6146 30.17C26.5922 30.185 26.5705 30.2008 26.5504 30.218C26.3671 30.3567 26.2011 30.5169 26.0558 30.695C25.9001 30.8867 25.699 31.0364 25.4707 31.1306C25.2424 31.2247 24.9942 31.2602 24.7487 31.2339ZM26.4676 37.5908L24.9482 32.6576L24.956 32.6492C25.5756 32.6385 26.1753 32.4287 26.6666 32.0509L27.8719 35.9798L26.4676 37.5908ZM31.1157 36.1033L29.2058 35.5318L27.8489 31.1072C27.968 31.0685 28.0916 31.0452 28.2167 31.038C28.6481 31.0145 29.0687 30.8947 29.4477 30.6873L31.1157 36.1033ZM30.5947 29.5403C30.8021 29.1615 30.9218 28.7409 30.9449 28.3097C30.952 28.1802 30.9779 28.0543 31.0171 27.9334L35.4387 29.2977L36.0107 31.2087L30.5947 29.5403ZM37.4981 26.5606L35.8876 27.9642L31.9635 26.753C32.3385 26.2627 32.5466 25.6651 32.557 25.0479L32.5647 25.0409L37.4981 26.5606ZM40.6976 8.14906C40.6483 8.1029 40.5994 8.05626 40.551 8.00913C40.476 7.93653 40.4008 7.86404 40.3253 7.78816C40.2243 7.68716 40.1247 7.58483 40.0264 7.48119C39.9945 7.4478 39.9634 7.4145 39.9319 7.38083C39.1486 6.5447 38.4744 5.65849 37.9766 4.81401C38.7763 5.09501 39.9113 5.77648 41.1244 6.98945C42.3374 8.20252 43.0189 9.33718 43.2995 10.1369C42.4437 9.63205 41.5438 8.94627 40.6976 8.14906ZM46.4433 10.8627L46.4059 10.8957C46.1685 11.0884 45.6204 11.1029 44.8565 10.8601C44.8396 9.38042 43.557 7.43242 42.119 5.99444C40.68 4.55572 38.7302 3.2724 37.2501 3.2573C37.0189 2.53925 37.0035 1.96302 37.2207 1.70472L37.2516 1.66992C37.3721 1.55456 37.5739 1.49773 37.8355 1.49773C38.2385 1.49773 38.7818 1.63185 39.3827 1.8923C40.6459 2.44003 42.0575 3.45736 43.357 4.7569C46.3641 7.76359 46.9621 10.3212 46.4433 10.8627Z" fill="white"/>
</svg>
