<svg width="49" height="48" viewBox="0 0 49 48" fill="none" xmlns="http://www.w3.org/2000/svg">
<g clip-path="url(#clip0_4004_1333)">
<path d="M21.31 39.0405C22.1633 39.0405 22.8833 38.7205 23.47 38.0805C24.0567 37.4405 24.35 36.6672 24.35 35.7605C24.35 34.8539 24.0567 34.1072 23.47 33.5205C22.8833 32.9339 22.1367 32.6405 21.23 32.6405C20.3233 32.6405 19.5767 32.9339 18.99 33.5205C18.4033 34.1072 18.11 34.8539 18.11 35.7605C18.11 36.6672 18.4033 37.4405 18.99 38.0805C19.5767 38.7205 20.35 39.0405 21.31 39.0405ZM21.31 33.9205C21.7367 33.9205 22.1367 34.1072 22.51 34.4805C22.8833 34.8539 23.07 35.2805 23.07 35.7605C23.07 36.2405 22.8833 36.6672 22.51 37.0405C22.1367 37.4139 21.71 37.6005 21.23 37.6005C20.75 37.6005 20.3233 37.4139 19.95 37.0405C19.5767 36.6672 19.39 36.2405 19.39 35.7605C19.39 35.2805 19.5767 34.8539 19.95 34.4805C20.3233 34.1072 20.7767 33.9205 21.31 33.9205ZM15.87 41.6005V45.9205C15.87 46.1339 15.95 46.2939 16.11 46.4005C16.27 46.5072 16.4033 46.5605 16.51 46.5605H25.95C26.0567 46.5605 26.19 46.5072 26.35 46.4005C26.51 46.2939 26.59 46.1339 26.59 45.9205V41.6005C26.59 40.7472 26.2967 40.0272 25.71 39.4405C25.1233 38.8539 24.4567 38.6139 23.71 38.7205C23.39 38.6139 23.1767 38.6672 23.07 38.8805C22.9633 39.0939 22.8033 39.2539 22.59 39.3605C22.0567 39.7872 21.4967 39.9472 20.91 39.8405C20.3233 39.7339 19.8167 39.4139 19.39 38.8805C19.2833 38.6672 19.07 38.6139 18.75 38.7205C18.0033 38.6139 17.3367 38.8539 16.75 39.4405C16.1633 40.0272 15.87 40.7472 15.87 41.6005ZM17.31 41.6005C17.31 41.1739 17.4167 40.8272 17.63 40.5605C17.8433 40.2939 18.1633 40.1072 18.59 40.0005C19.23 40.7472 20.11 41.1205 21.23 41.1205C22.35 41.1205 23.23 40.7472 23.87 40.0005C24.2967 40.1072 24.6167 40.2939 24.83 40.5605C25.0433 40.8272 25.15 41.1739 25.15 41.6005V45.2805H17.31V41.6005ZM32.51 39.0405C33.3633 39.0405 34.11 38.7205 34.75 38.0805C35.39 37.4405 35.71 36.6672 35.71 35.7605C35.71 34.8539 35.39 34.1072 34.75 33.5205C34.11 32.9339 33.3367 32.6405 32.43 32.6405C31.5233 32.6405 30.7767 32.9339 30.19 33.5205C29.6033 34.1072 29.31 34.8539 29.31 35.7605C29.31 36.6672 29.63 37.4405 30.27 38.0805C30.91 38.7205 31.6567 39.0405 32.51 39.0405ZM32.51 33.9205C32.9367 33.9205 33.3367 34.1072 33.71 34.4805C34.0833 34.8539 34.27 35.2805 34.27 35.7605C34.27 36.2405 34.0833 36.6672 33.71 37.0405C33.3367 37.4139 32.91 37.6005 32.43 37.6005C31.95 37.6005 31.5233 37.4139 31.15 37.0405C30.7767 36.6672 30.59 36.2405 30.59 35.7605C30.59 35.2805 30.7767 34.8539 31.15 34.4805C31.5233 34.1072 31.9767 33.9205 32.51 33.9205ZM27.23 41.6005V45.9205C27.23 46.1339 27.2833 46.2939 27.39 46.4005C27.4967 46.5072 27.6567 46.5605 27.87 46.5605H37.15C37.3633 46.5605 37.5233 46.5072 37.63 46.4005C37.7367 46.2939 37.79 46.1339 37.79 45.9205V41.6005C37.79 40.7472 37.4967 40.0539 36.91 39.5205C36.3233 38.9872 35.6567 38.7205 34.91 38.7205C34.6967 38.6139 34.51 38.6672 34.35 38.8805C34.19 39.0939 34.0033 39.2539 33.79 39.3605C33.2567 39.7872 32.6967 39.9472 32.11 39.8405C31.5233 39.7339 31.0167 39.4139 30.59 38.8805C30.4833 38.6672 30.3233 38.6139 30.11 38.7205C29.2567 38.6139 28.5633 38.8539 28.03 39.4405C27.4967 40.0272 27.23 40.7472 27.23 41.6005ZM28.51 41.6005C28.51 41.1739 28.6167 40.8272 28.83 40.5605C29.0433 40.2939 29.3633 40.1072 29.79 40.0005C30.43 40.6405 31.2033 41.0139 32.11 41.1205C33.0167 41.2272 33.8433 41.0139 34.59 40.4805L35.23 40.0005C35.55 40.1072 35.8433 40.2939 36.11 40.5605C36.3767 40.8272 36.51 41.1739 36.51 41.6005V45.2805H28.51V41.6005ZM43.71 39.0405C44.5633 39.0405 45.31 38.7205 45.95 38.0805C46.59 37.4405 46.91 36.6672 46.91 35.7605C46.91 34.8539 46.59 34.1072 45.95 33.5205C45.31 32.9339 44.5633 32.6405 43.71 32.6405C42.8567 32.6405 42.11 32.9339 41.47 33.5205C40.83 34.1072 40.51 34.8539 40.51 35.7605C40.51 36.6672 40.83 37.4405 41.47 38.0805C42.11 38.7205 42.8567 39.0405 43.71 39.0405ZM43.71 33.9205C44.2433 33.9205 44.67 34.1072 44.99 34.4805C45.31 34.8539 45.47 35.2805 45.47 35.7605C45.47 36.2405 45.31 36.6672 44.99 37.0405C44.67 37.4139 44.2433 37.6005 43.71 37.6005C43.1767 37.6005 42.75 37.4139 42.43 37.0405C42.11 36.6672 41.95 36.2405 41.95 35.7605C41.95 35.2805 42.11 34.8539 42.43 34.4805C42.75 34.1072 43.1767 33.9205 43.71 33.9205ZM46.11 38.7205C45.8967 38.6139 45.71 38.6672 45.55 38.8805C45.39 39.0939 45.2033 39.2539 44.99 39.3605C44.5633 39.7872 44.03 39.9472 43.39 39.8405C42.75 39.7339 42.2167 39.4139 41.79 38.8805C41.6833 38.6672 41.5233 38.6139 41.31 38.7205C40.4567 38.7205 39.7367 38.9872 39.15 39.5205C38.5633 40.0539 38.27 40.7472 38.27 41.6005V45.9205C38.27 46.1339 38.35 46.2939 38.51 46.4005C38.67 46.5072 38.8567 46.5605 39.07 46.5605H48.35C48.5633 46.5605 48.7233 46.5072 48.83 46.4005C48.9367 46.2939 48.99 46.1339 48.99 45.9205V41.6005C48.99 40.7472 48.6967 40.0272 48.11 39.4405C47.5233 38.8539 46.8567 38.6139 46.11 38.7205ZM46.43 40.0005C46.75 40.1072 47.0167 40.2939 47.23 40.5605C47.4433 40.8272 47.55 41.1739 47.55 41.6005V45.2805H39.71V41.6005C39.71 41.1739 39.8167 40.8272 40.03 40.5605C40.2433 40.2939 40.5633 40.1072 40.99 40.0005C41.7367 40.7472 42.6433 41.1205 43.71 41.1205C44.7767 41.1205 45.6833 40.7472 46.43 40.0005ZM9.46999 10.5605C10.5367 10.5605 11.4433 10.1605 12.19 9.36055C12.9367 8.56055 13.31 7.62721 13.31 6.56055V5.28055C13.31 4.21388 12.9367 3.30721 12.19 2.56055C11.4433 1.81388 10.5367 1.44055 9.46999 1.44055C8.40332 1.44055 7.49666 1.81388 6.74999 2.56055C6.00332 3.30721 5.62999 4.21388 5.62999 5.28055V6.56055C5.62999 7.62721 6.00332 8.56055 6.74999 9.36055C7.49666 10.1605 8.40332 10.5605 9.46999 10.5605ZM6.90999 5.28055C6.90999 4.64055 7.17666 4.08055 7.70999 3.60055C8.24332 3.12055 8.85666 2.88055 9.54999 2.88055C10.2433 2.88055 10.83 3.12055 11.31 3.60055C11.79 4.08055 12.03 4.64055 12.03 5.28055V6.56055C12.03 7.30721 11.79 7.92055 11.31 8.40055C10.83 8.88055 10.2433 9.12055 9.54999 9.12055C8.85666 9.12055 8.24332 8.88055 7.70999 8.40055C7.17666 7.92055 6.90999 7.30721 6.90999 6.56055V5.28055ZM0.98999 24.6405C0.98999 25.3872 1.22999 25.9739 1.70999 26.4005C2.18999 26.8272 2.74999 27.0405 3.38999 27.0405C3.92332 27.0405 4.34999 26.9339 4.66999 26.7205L5.14999 41.4405C5.14999 41.9739 5.30999 42.4539 5.62999 42.8805C5.94999 43.3072 6.34999 43.6005 6.82999 43.7605C7.30999 43.9205 7.78999 43.9472 8.26999 43.8405C8.74999 43.7339 9.20332 43.4672 9.62999 43.0405C9.94999 43.4672 10.3767 43.7339 10.91 43.8405C11.4433 43.9472 11.95 43.9205 12.43 43.7605C12.91 43.6005 13.31 43.3072 13.63 42.8805C13.95 42.4539 14.11 41.9739 14.11 41.4405L14.59 26.8805C14.91 27.0939 15.2833 27.2005 15.71 27.2005C16.35 27.2005 16.91 26.9605 17.39 26.4805C17.87 26.0005 18.11 25.3872 18.11 24.6405V14.8805C18.2167 13.8139 17.9233 12.8539 17.23 12.0005C16.5367 11.1472 15.6567 10.6672 14.59 10.5605H12.51C12.2967 10.5605 12.1367 10.6139 12.03 10.7205L9.62999 12.9605L7.22999 10.7205C7.12332 10.6139 6.96332 10.5605 6.74999 10.5605H4.98999C3.92332 10.5605 2.98999 10.9339 2.18999 11.6805C1.38999 12.4272 0.98999 13.3872 0.98999 14.5605V14.8805V24.6405ZM11.55 42.5605C11.23 42.5605 10.9367 42.4539 10.67 42.2405C10.4033 42.0272 10.27 41.7605 10.27 41.4405V26.8805C10.27 26.7739 10.2167 26.6405 10.11 26.4805C10.0033 26.3205 9.84332 26.2405 9.62999 26.2405C9.41666 26.2405 9.25666 26.3205 9.14999 26.4805C9.04332 26.6405 8.98999 26.7739 8.98999 26.8805V41.4405C8.98999 41.7605 8.85666 42.0272 8.58999 42.2405C8.32332 42.4539 8.02999 42.5605 7.70999 42.5605C7.38999 42.5605 7.09666 42.4539 6.82999 42.2405C6.56332 42.0272 6.42999 41.7605 6.42999 41.4405L5.94999 24.4805H13.15L12.67 41.4405C12.67 41.7605 12.5633 42.0272 12.35 42.2405C12.1367 42.4539 11.87 42.5605 11.55 42.5605ZM3.06999 12.6405C3.60332 12.1072 4.24332 11.8405 4.98999 11.8405H6.42999L9.14999 14.4005L12.83 11.8405H14.27C15.0167 11.8405 15.6567 12.1605 16.19 12.8005C16.7233 13.4405 16.9367 14.1339 16.83 14.8805V24.6405C16.83 24.9605 16.7233 25.2272 16.51 25.4405C16.2967 25.6539 16.03 25.7605 15.71 25.7605C15.39 25.7605 15.1233 25.6539 14.91 25.4405C14.6967 25.2272 14.59 24.9605 14.59 24.6405V18.0805C14.59 17.8672 14.5367 17.7072 14.43 17.6005C14.3233 17.4939 14.1633 17.4405 13.95 17.4405C13.7367 17.4405 13.5767 17.4939 13.47 17.6005C13.3633 17.7072 13.31 17.8672 13.31 18.0805V23.2005H5.94999V18.0805C5.94999 17.8672 5.86999 17.7072 5.70999 17.6005C5.54999 17.4939 5.38999 17.4405 5.22999 17.4405C5.06999 17.4405 4.90999 17.4939 4.74999 17.6005C4.58999 17.7072 4.50999 17.8672 4.50999 18.0805V24.6405C4.50999 24.9605 4.40332 25.2272 4.18999 25.4405C3.97666 25.6539 3.70999 25.7605 3.38999 25.7605C3.17666 25.7605 2.96332 25.6539 2.74999 25.4405C2.53666 25.2272 2.42999 24.9605 2.42999 24.6405V14.5605C2.32332 13.8139 2.53666 13.1739 3.06999 12.6405ZM19.55 7.68055H20.67V21.7605C20.67 22.5072 20.9367 23.1472 21.47 23.6805C22.0033 24.2139 22.6433 24.4805 23.39 24.4805H32.03L27.39 28.6405C27.07 28.8539 26.9633 29.1205 27.07 29.4405C27.1767 29.7605 27.3633 29.9205 27.63 29.9205C27.8967 29.9205 28.0833 29.8672 28.19 29.7605L33.47 24.9605L38.75 29.7605C38.8567 29.8672 39.0167 29.9205 39.23 29.9205C39.4433 29.9205 39.6033 29.8405 39.71 29.6805C39.8167 29.5205 39.87 29.3339 39.87 29.1205C39.87 28.9072 39.8167 28.7472 39.71 28.6405L34.91 24.4805H43.55C44.2967 24.4805 44.9367 24.2139 45.47 23.6805C46.0033 23.1472 46.27 22.5072 46.27 21.7605V7.68055H47.39C47.6033 7.68055 47.7633 7.60055 47.87 7.44055C47.9767 7.28055 48.03 7.14721 48.03 7.04055V2.24055C48.03 2.02721 47.9767 1.86721 47.87 1.76055C47.7633 1.65388 47.6033 1.60055 47.39 1.60055H19.55C19.4433 1.60055 19.31 1.65388 19.15 1.76055C18.99 1.86721 18.91 2.02721 18.91 2.24055V7.04055C18.91 7.14721 18.99 7.28055 19.15 7.44055C19.31 7.60055 19.4433 7.68055 19.55 7.68055ZM44.83 21.7605C44.83 22.0805 44.6967 22.3739 44.43 22.6405C44.1633 22.9072 43.87 23.0405 43.55 23.0405H23.39C23.07 23.0405 22.7767 22.9072 22.51 22.6405C22.2433 22.3739 22.11 22.0805 22.11 21.7605V7.68055H44.83V21.7605ZM20.35 3.04055H46.75V6.24055H20.35V3.04055ZM25.15 13.1205H37.79C38.0033 13.1205 38.19 13.0405 38.35 12.8805C38.51 12.7205 38.59 12.5605 38.59 12.4005C38.59 12.2405 38.51 12.0805 38.35 11.9205C38.19 11.7605 38.0033 11.6805 37.79 11.6805H25.15C25.0433 11.6805 24.91 11.7605 24.75 11.9205C24.59 12.0805 24.51 12.2405 24.51 12.4005C24.51 12.5605 24.59 12.7205 24.75 12.8805C24.91 13.0405 25.0433 13.1205 25.15 13.1205ZM25.15 15.8405H41.79C42.0033 15.8405 42.19 15.7605 42.35 15.6005C42.51 15.4405 42.59 15.2805 42.59 15.1205C42.59 14.9605 42.51 14.8005 42.35 14.6405C42.19 14.4805 42.0033 14.4005 41.79 14.4005H25.15C25.0433 14.4005 24.91 14.4805 24.75 14.6405C24.59 14.8005 24.51 14.9605 24.51 15.1205C24.51 15.2805 24.59 15.4405 24.75 15.6005C24.91 15.7605 25.0433 15.8405 25.15 15.8405ZM25.15 18.4005H41.79C42.0033 18.4005 42.19 18.3472 42.35 18.2405C42.51 18.1339 42.59 17.9739 42.59 17.7605C42.59 17.5472 42.51 17.3872 42.35 17.2805C42.19 17.1739 42.0033 17.1205 41.79 17.1205H25.15C25.0433 17.1205 24.91 17.1739 24.75 17.2805C24.59 17.3872 24.51 17.5472 24.51 17.7605C24.51 17.9739 24.59 18.1339 24.75 18.2405C24.91 18.3472 25.0433 18.4005 25.15 18.4005Z" fill="white"/>
</g>
<defs>
<clipPath id="clip0_4004_1333">
<rect width="48.02" height="48" fill="white" transform="matrix(1 0 0 -1 0.97998 48)"/>
</clipPath>
</defs>
</svg>
