<svg width="40" height="41" viewBox="0 0 40 41" fill="none" xmlns="http://www.w3.org/2000/svg">
<path d="M39.6505 30.0734L35.5517 28.024L32.9432 21.2385C32.9124 21.1583 32.8655 21.0853 32.8053 21.024C32.7451 20.9627 32.6729 20.9145 32.5933 20.8824L16.4075 14.4124C16.2943 14.3674 16.1705 14.3564 16.0511 14.3808C15.9318 14.4052 15.8222 14.464 15.7358 14.5499L13.5771 16.7086C13.4923 16.7951 13.4345 16.9043 13.4107 17.023C13.3868 17.1417 13.398 17.2647 13.4428 17.3772L19.9127 33.5629C19.9448 33.6426 19.993 33.7148 20.0543 33.775C20.1156 33.8352 20.1886 33.8821 20.2688 33.9128L27.0543 36.5214L29.1037 40.6202C29.1468 40.7106 29.2111 40.7893 29.291 40.8496C29.3709 40.91 29.4642 40.9502 29.5629 40.967C29.5962 40.9701 29.6296 40.9701 29.6629 40.967C29.8283 40.9663 29.9867 40.9 30.1034 40.7827L39.813 31.0731C39.8844 31.0041 39.9384 30.9191 39.9705 30.8251C40.0025 30.7311 40.0117 30.6309 39.9973 30.5326C39.9805 30.4339 39.9403 30.3406 39.8799 30.2607C39.8196 30.1808 39.7409 30.1165 39.6505 30.0734ZM14.7517 17.296L15.0985 16.9523L23.1555 25.0093C22.6245 25.7617 22.3952 26.6859 22.5128 27.5993C22.6305 28.5126 23.0866 29.3486 23.791 29.9418C24.4953 30.535 25.3967 30.8424 26.3167 30.8031C27.2368 30.7637 28.1086 30.3806 28.7598 29.7294C29.4109 29.0783 29.7941 28.2065 29.8334 27.2864C29.8727 26.3664 29.5654 25.465 28.9721 24.7607C28.3789 24.0563 27.5429 23.6002 26.6296 23.4825C25.7162 23.3648 24.792 23.5942 24.0396 24.1252L15.9826 16.0682L16.3263 15.7214L31.8747 21.9414L34.3271 28.3208L27.3511 35.2968L20.9717 32.8444L14.7517 17.296ZM26.1577 24.7C26.7192 24.7008 27.2631 24.8963 27.6967 25.2532C28.1303 25.61 28.4267 26.1062 28.5355 26.6571C28.6443 27.208 28.5587 27.7796 28.2933 28.2745C28.028 28.7694 27.5992 29.1569 27.0802 29.3712C26.5611 29.5854 25.9838 29.6131 25.4466 29.4494C24.9095 29.2857 24.4456 28.9409 24.1342 28.4736C23.8228 28.0064 23.683 27.4456 23.7386 26.8868C23.7943 26.328 24.042 25.8058 24.4395 25.4091C24.8956 24.9544 25.5136 24.6994 26.1577 24.7ZM29.8347 39.2862L28.2727 36.1622L35.1862 29.2486L38.3103 30.8106L29.8347 39.2862Z" fill="#4681DD"/>
<path d="M11.9588 34.4069C11.8393 34.2939 11.6811 34.231 11.5167 34.231C11.3523 34.231 11.1942 34.2939 11.0747 34.4069L10.2812 35.2004C8.1636 32.3264 6.99542 28.8634 6.93942 25.294C6.88342 21.7246 7.9424 18.2266 9.96875 15.2876C10.5758 15.6217 11.2749 15.75 11.961 15.6533C12.6472 15.5567 13.2836 15.2403 13.7748 14.7515C14.266 14.2628 14.5856 13.628 14.6857 12.9424C14.7858 12.2567 14.6609 11.557 14.3299 10.9483C17.2689 8.92195 20.7669 7.86298 24.3363 7.91898C27.9057 7.97498 31.3687 9.14316 34.2427 11.2607L33.4367 12.0448C33.3205 12.162 33.2554 12.3203 33.2555 12.4853C33.255 12.5675 33.2708 12.6491 33.3019 12.7252C33.333 12.8013 33.3788 12.8705 33.4367 12.9289L36.1921 15.6625C36.3092 15.7789 36.4676 15.8442 36.6326 15.8442C36.7977 15.8442 36.956 15.7789 37.0731 15.6625L39.8129 12.9227C39.871 12.8647 39.9171 12.7957 39.9485 12.7199C39.98 12.644 39.9962 12.5627 39.9962 12.4806C39.9962 12.3985 39.98 12.3172 39.9485 12.2414C39.9171 12.1655 39.871 12.0966 39.8129 12.0386L37.0731 9.2988C36.956 9.18243 36.7977 9.11711 36.6326 9.11711C36.4676 9.11711 36.3092 9.18243 36.1921 9.2988L35.1331 10.3516C32.5229 8.3875 29.4371 7.1535 26.1923 6.77632C22.9476 6.39914 19.6609 6.89238 16.6699 8.20538L20.2719 4.61271C20.6803 4.80786 21.1447 4.85204 21.5826 4.73739C22.0205 4.62275 22.4036 4.35671 22.664 3.98646C22.9244 3.61621 23.0452 3.16569 23.005 2.71482C22.9649 2.26396 22.7663 1.84189 22.4445 1.52351C22.1228 1.20513 21.6987 1.01102 21.2474 0.9756C20.7961 0.940184 20.3469 1.06576 19.9794 1.33005C19.6119 1.59433 19.3499 1.98025 19.2399 2.41933C19.1299 2.8584 19.179 3.32226 19.3784 3.7286L13.299 9.8174C12.6817 9.40334 11.9399 9.21643 11.2001 9.28862C10.4603 9.3608 9.76857 9.6876 9.24299 10.2132C8.71741 10.7387 8.39062 11.4305 8.31844 12.1702C8.24625 12.91 8.43315 13.6519 8.84721 14.2692L2.75842 20.3486C2.35049 20.1498 1.88529 20.1021 1.4455 20.2139C1.00571 20.3257 0.619804 20.5898 0.356358 20.9593C0.0929114 21.3288 -0.0310131 21.7797 0.00660532 22.2319C0.0442238 22.6842 0.240949 23.1084 0.561823 23.4293C0.882697 23.7502 1.30694 23.9469 1.75916 23.9845C2.21138 24.0221 2.6623 23.8982 3.03178 23.6347C3.40126 23.3713 3.66538 22.9854 3.7772 22.5456C3.88902 22.1058 3.8413 21.6406 3.64253 21.2327L7.24457 17.64C5.93025 20.6303 5.43546 23.9165 5.81099 27.1612C6.18652 30.4059 7.41884 33.4922 9.38143 36.1032L8.3255 37.1623C8.20912 37.2793 8.1438 37.4377 8.1438 37.6028C8.1438 37.7678 8.20912 37.9262 8.3255 38.0433L11.0653 40.7831C11.1819 40.9004 11.3403 40.9667 11.5058 40.9674C11.5882 40.9674 11.6699 40.9512 11.746 40.9196C11.8222 40.8879 11.8913 40.8415 11.9494 40.7831L14.6923 38.0433C14.8087 37.9262 14.874 37.7678 14.874 37.6028C14.874 37.4377 14.8087 37.2793 14.6923 37.1623L11.9588 34.4069ZM36.6389 10.6172L38.4946 12.4728L36.6389 14.3285L34.7832 12.4728L36.6389 10.6172ZM20.628 2.42587C20.7209 2.33226 20.8395 2.26835 20.9687 2.24223C21.0979 2.21612 21.232 2.22898 21.3539 2.27919C21.4758 2.32939 21.58 2.41468 21.6534 2.52422C21.7267 2.63377 21.7659 2.76264 21.7659 2.89447C21.7659 3.02631 21.7267 3.15518 21.6534 3.26473C21.58 3.37427 21.4758 3.45956 21.3539 3.50976C21.232 3.55997 21.0979 3.57283 20.9687 3.54671C20.8395 3.5206 20.7209 3.45669 20.628 3.36308C20.5665 3.30157 20.5176 3.22853 20.4843 3.14812C20.4509 3.06771 20.4338 2.98152 20.4338 2.89447C20.4338 2.80743 20.4509 2.72124 20.4843 2.64083C20.5176 2.56042 20.5665 2.48738 20.628 2.42587ZM10.1312 11.1014C10.3126 10.9191 10.5283 10.7744 10.7658 10.6757C11.0033 10.577 11.258 10.5262 11.5152 10.5262C11.7724 10.5262 12.027 10.577 12.2645 10.6757C12.502 10.7744 12.7177 10.9191 12.8991 11.1014C13.1734 11.3752 13.3602 11.7242 13.4361 12.1042C13.5119 12.4843 13.4733 12.8783 13.3251 13.2364C13.177 13.5945 12.9259 13.9006 12.6037 14.116C12.2815 14.3314 11.9027 14.4463 11.5152 14.4463C11.1276 14.4463 10.7488 14.3314 10.4266 14.116C10.1044 13.9006 9.85334 13.5945 9.70518 13.2364C9.55702 12.8783 9.51841 12.4843 9.59424 12.1042C9.67008 11.7242 9.85695 11.3752 10.1312 11.1014ZM2.39603 22.5354C2.26847 22.6418 2.10574 22.6966 1.93982 22.6891C1.77389 22.6816 1.61677 22.6123 1.49933 22.4949C1.38188 22.3775 1.3126 22.2203 1.3051 22.0544C1.29761 21.8885 1.35243 21.7258 1.45881 21.5982C1.58384 21.4753 1.75212 21.4065 1.92742 21.4065C2.10272 21.4065 2.271 21.4753 2.39603 21.5982C2.45761 21.6597 2.50647 21.7328 2.53981 21.8132C2.57314 21.8936 2.5903 21.9798 2.5903 22.0668C2.5903 22.1539 2.57314 22.24 2.53981 22.3205C2.50647 22.4009 2.45761 22.4739 2.39603 22.5354ZM11.5152 39.446L9.65947 37.5903L11.5152 35.7346L13.3709 37.5903L11.5152 39.446Z" fill="#4681DD"/>
</svg>
