<svg width="208" height="74" viewBox="0 0 208 74" fill="none" xmlns="http://www.w3.org/2000/svg">
<path d="M9.8667 9.86621V14.7995H19.7334V59.1995H9.8667V64.1329H24.6667V9.86621H9.8667ZM29.6 9.86621V64.1329H64.1334V59.1995H34.5334V14.7995H64.1334V9.86621H29.6Z" fill="white" fill-opacity="0.7"/>
<path d="M102.48 33.336C101.584 33.336 100.688 33.24 99.792 33.048C98.912 32.856 98.112 32.584 97.392 32.232V27.72C97.648 27.672 97.904 27.672 98.16 27.72C98.256 28.632 98.52 29.44 98.952 30.144C99.384 30.832 99.936 31.376 100.608 31.776C101.296 32.176 102.048 32.376 102.864 32.376C104.016 32.376 104.92 32.112 105.576 31.584C106.232 31.04 106.56 30.32 106.56 29.424C106.56 28.816 106.4 28.312 106.08 27.912C105.76 27.512 105.336 27.176 104.808 26.904C104.28 26.616 103.696 26.352 103.056 26.112C102.432 25.872 101.8 25.616 101.16 25.344C100.536 25.056 99.96 24.712 99.432 24.312C98.904 23.912 98.48 23.408 98.16 22.8C97.84 22.192 97.68 21.432 97.68 20.52C97.68 19.528 97.912 18.688 98.376 18C98.856 17.296 99.528 16.768 100.392 16.416C101.272 16.048 102.296 15.864 103.464 15.864C104.456 15.864 105.312 15.96 106.032 16.152C106.768 16.344 107.416 16.6 107.976 16.92V21C107.72 21.048 107.464 21.048 107.208 21C107.064 19.736 106.656 18.728 105.984 17.976C105.328 17.208 104.432 16.824 103.296 16.824C102.304 16.824 101.52 17.04 100.944 17.472C100.368 17.904 100.08 18.528 100.08 19.344C100.08 19.936 100.24 20.432 100.56 20.832C100.896 21.216 101.336 21.544 101.88 21.816C102.424 22.088 103.016 22.344 103.656 22.584C104.312 22.824 104.96 23.088 105.6 23.376C106.256 23.648 106.856 23.992 107.4 24.408C107.944 24.808 108.376 25.312 108.696 25.92C109.032 26.528 109.2 27.288 109.2 28.2C109.2 29.224 108.92 30.12 108.36 30.888C107.816 31.656 107.04 32.256 106.032 32.688C105.04 33.12 103.856 33.336 102.48 33.336ZM110.78 38.088C110.716 37.784 110.716 37.488 110.78 37.2H112.1C112.18 36.624 112.236 36.04 112.268 35.448C112.316 34.872 112.34 34.256 112.34 33.6V26.64C112.34 25.344 112.26 24.16 112.1 23.088H110.9C110.836 22.784 110.836 22.488 110.9 22.2C111.652 22.2 112.348 22.176 112.988 22.128C113.644 22.08 114.324 21.992 115.028 21.864C114.964 22.104 114.908 22.408 114.86 22.776C114.828 23.128 114.804 23.456 114.788 23.76L115.028 24.84V33.6C115.028 34.256 115.044 34.872 115.076 35.448C115.124 36.04 115.188 36.624 115.268 37.2H117.068C117.132 37.488 117.132 37.784 117.068 38.088C116.428 38.056 115.812 38.04 115.22 38.04C114.644 38.04 114.132 38.04 113.684 38.04C113.236 38.04 112.772 38.04 112.292 38.04C111.812 38.04 111.308 38.056 110.78 38.088ZM118.388 21.84C119.284 21.84 120.092 22.04 120.812 22.44C121.548 22.84 122.124 23.456 122.54 24.288C122.972 25.12 123.188 26.168 123.188 27.432C123.188 28.712 122.948 29.792 122.468 30.672C121.988 31.552 121.316 32.224 120.452 32.688C119.604 33.136 118.604 33.36 117.452 33.36C116.364 33.36 115.476 33.184 114.788 32.832C114.1 32.48 113.484 32.04 112.94 31.512L115.028 29.52C115.028 30.304 115.156 30.904 115.412 31.32C115.684 31.736 116.004 32.024 116.372 32.184C116.756 32.328 117.1 32.4 117.404 32.4C118.268 32.4 118.948 32 119.444 31.2C119.94 30.4 120.188 29.208 120.188 27.624C120.188 26.072 119.956 24.912 119.492 24.144C119.044 23.36 118.42 22.968 117.62 22.968C117.076 22.968 116.596 23.136 116.18 23.472C115.78 23.808 115.396 24.264 115.028 24.84L114.788 23.76C115.124 23.216 115.596 22.76 116.204 22.392C116.812 22.024 117.54 21.84 118.388 21.84ZM128.85 33.36C127.762 33.36 126.866 33.08 126.162 32.52C125.458 31.96 125.106 31.176 125.106 30.168C125.106 29.416 125.306 28.8 125.706 28.32C126.106 27.824 126.65 27.448 127.338 27.192C128.042 26.936 128.818 26.808 129.666 26.808C130.242 26.808 130.73 26.856 131.13 26.952C131.53 27.032 131.89 27.136 132.21 27.264V28.248C131.634 27.976 131.01 27.84 130.338 27.84C129.65 27.84 129.066 28.032 128.586 28.416C128.106 28.784 127.866 29.352 127.866 30.12C127.866 30.776 128.026 31.296 128.346 31.68C128.666 32.048 129.106 32.232 129.666 32.232C130.194 32.232 130.666 32.112 131.082 31.872C131.498 31.616 131.874 31.312 132.21 30.96L132.402 31.968C131.986 32.368 131.498 32.704 130.938 32.976C130.378 33.232 129.682 33.36 128.85 33.36ZM134.898 25.632V30.84C134.898 31.368 135.018 31.72 135.258 31.896C135.498 32.072 135.866 32.16 136.362 32.16C136.41 32.448 136.41 32.744 136.362 33.048C136.058 33.112 135.746 33.16 135.426 33.192C135.122 33.224 134.842 33.24 134.586 33.24C133.93 33.24 133.426 33.128 133.074 32.904C132.738 32.68 132.514 32.368 132.402 31.968L132.21 30.96V25.656C132.21 24.76 132.066 24.048 131.778 23.52C131.49 22.992 131.002 22.728 130.314 22.728C129.658 22.728 129.162 22.952 128.826 23.4C128.506 23.848 128.386 24.464 128.466 25.248H125.706C125.706 24.624 125.882 24.056 126.234 23.544C126.602 23.032 127.138 22.624 127.842 22.32C128.562 22 129.45 21.84 130.506 21.84C132.042 21.84 133.154 22.168 133.842 22.824C134.546 23.464 134.898 24.4 134.898 25.632ZM143.498 33.36C142.394 33.36 141.418 33.136 140.57 32.688C139.738 32.224 139.09 31.56 138.626 30.696C138.178 29.832 137.954 28.784 137.954 27.552C137.954 26.352 138.202 25.328 138.698 24.48C139.194 23.632 139.882 22.984 140.762 22.536C141.658 22.072 142.698 21.84 143.882 21.84C144.65 21.84 145.322 21.92 145.898 22.08C146.474 22.224 146.978 22.424 147.41 22.68V26.28C147.154 26.328 146.898 26.328 146.642 26.28C146.354 25.112 145.97 24.24 145.49 23.664C145.026 23.088 144.442 22.8 143.738 22.8C143.082 22.8 142.546 22.992 142.13 23.376C141.73 23.76 141.434 24.312 141.242 25.032C141.05 25.736 140.954 26.576 140.954 27.552C140.954 28.464 141.082 29.264 141.338 29.952C141.61 30.64 141.978 31.168 142.442 31.536C142.922 31.904 143.466 32.088 144.074 32.088C144.49 32.088 144.866 32.032 145.202 31.92C145.538 31.808 145.874 31.624 146.21 31.368C146.546 31.096 146.906 30.736 147.29 30.288C147.434 30.368 147.562 30.464 147.674 30.576C147.786 30.672 147.898 30.784 148.01 30.912C147.562 31.472 147.114 31.936 146.666 32.304C146.218 32.656 145.738 32.92 145.226 33.096C144.73 33.272 144.154 33.36 143.498 33.36ZM155.453 33.36C154.349 33.36 153.373 33.144 152.525 32.712C151.677 32.28 151.013 31.632 150.533 30.768C150.053 29.904 149.813 28.848 149.813 27.6C149.813 26.368 150.053 25.328 150.533 24.48C151.013 23.616 151.669 22.96 152.501 22.512C153.349 22.064 154.317 21.84 155.405 21.84C156.381 21.84 157.245 22.024 157.997 22.392C158.765 22.76 159.365 23.344 159.797 24.144C160.229 24.944 160.445 25.984 160.445 27.264C159.965 27.184 159.477 27.128 158.981 27.096C158.485 27.064 157.893 27.048 157.205 27.048H152.213V26.208H157.421C157.421 25.104 157.237 24.248 156.869 23.64C156.517 23.016 155.989 22.704 155.285 22.704C154.693 22.704 154.205 22.912 153.821 23.328C153.453 23.728 153.173 24.288 152.981 25.008C152.805 25.728 152.717 26.576 152.717 27.552C152.717 28.992 153.005 30.112 153.581 30.912C154.157 31.696 154.981 32.088 156.053 32.088C156.725 32.088 157.357 31.936 157.949 31.632C158.541 31.328 159.125 30.784 159.701 30C159.861 30.08 159.989 30.168 160.085 30.264C160.197 30.36 160.309 30.472 160.421 30.6C159.733 31.544 158.997 32.24 158.213 32.688C157.445 33.136 156.525 33.36 155.453 33.36ZM97.056 58.048C96.992 57.744 96.992 57.448 97.056 57.16H98.736C98.816 56.472 98.872 55.784 98.904 55.096C98.952 54.392 98.976 53.68 98.976 52.96V46.24C98.976 45.52 98.952 44.816 98.904 44.128C98.872 43.424 98.816 42.728 98.736 42.04H97.056C96.992 41.736 96.992 41.44 97.056 41.152C97.616 41.168 98.2 41.184 98.808 41.2C99.416 41.2 99.992 41.2 100.536 41.2H108.936V45.688C108.68 45.736 108.424 45.736 108.168 45.688C108.104 44.552 107.816 43.68 107.304 43.072C106.808 42.464 105.936 42.16 104.688 42.16H102.336C102.256 42.88 102.192 43.56 102.144 44.2C102.112 44.84 102.096 45.52 102.096 46.24V52.96C102.096 53.68 102.112 54.36 102.144 55C102.192 55.64 102.256 56.32 102.336 57.04H105.528C106.36 57.04 107.016 56.888 107.496 56.584C107.992 56.264 108.36 55.84 108.6 55.312C108.84 54.784 108.976 54.176 109.008 53.488C109.264 53.44 109.52 53.44 109.776 53.488V58H100.536C99.992 58 99.416 58 98.808 58C98.2 58 97.616 58.016 97.056 58.048ZM106.488 51.88C106.472 51.128 106.328 50.6 106.056 50.296C105.784 49.992 105.344 49.84 104.736 49.84H100.536V48.88H104.736C105.344 48.88 105.784 48.728 106.056 48.424C106.328 48.104 106.472 47.576 106.488 46.84C106.744 46.792 107 46.792 107.256 46.84V51.88C107 51.928 106.744 51.928 106.488 51.88ZM120.195 58.12C120.211 57.928 120.227 57.672 120.243 57.352C120.275 57.032 120.299 56.728 120.315 56.44L120.075 55.36V45.64C120.075 44.344 119.995 43.16 119.835 42.088H118.515C118.451 41.784 118.451 41.488 118.515 41.2C119.267 41.2 120.035 41.176 120.819 41.128C121.619 41.08 122.387 40.992 123.123 40.864C123.027 41.232 122.955 41.712 122.907 42.304C122.859 42.88 122.819 43.472 122.787 44.08C122.771 44.672 122.763 45.192 122.763 45.64V53.56C122.763 54.84 122.843 56.024 123.003 57.112H124.203C124.267 57.4 124.267 57.696 124.203 58C123.451 58 122.755 58 122.115 58C121.491 58.016 120.851 58.056 120.195 58.12ZM116.715 58.36C115.819 58.36 115.003 58.16 114.267 57.76C113.547 57.344 112.971 56.72 112.539 55.888C112.123 55.056 111.915 54.016 111.915 52.768C111.915 51.488 112.155 50.408 112.635 49.528C113.115 48.648 113.787 47.984 114.651 47.536C115.515 47.072 116.515 46.84 117.651 46.84C118.739 46.84 119.627 47.016 120.315 47.368C121.019 47.704 121.635 48.144 122.163 48.688L120.075 50.68C120.075 49.896 119.939 49.296 119.667 48.88C119.411 48.464 119.099 48.184 118.731 48.04C118.363 47.88 118.019 47.8 117.699 47.8C116.835 47.8 116.155 48.2 115.659 49C115.163 49.784 114.915 50.968 114.915 52.552C114.915 54.104 115.147 55.272 115.611 56.056C116.075 56.824 116.699 57.208 117.483 57.208C118.027 57.208 118.499 57.04 118.899 56.704C119.315 56.368 119.707 55.912 120.075 55.336L120.315 56.44C119.979 56.984 119.507 57.44 118.899 57.808C118.291 58.176 117.563 58.36 116.715 58.36ZM133.947 55.36L134.187 56.44C133.787 56.984 133.283 57.44 132.675 57.808C132.067 58.176 131.283 58.36 130.323 58.36C129.379 58.36 128.643 58.168 128.115 57.784C127.587 57.4 127.179 56.88 126.891 56.224C126.923 55.984 126.947 55.728 126.963 55.456C126.979 55.168 126.987 54.904 126.987 54.664V51.64C126.987 50.344 126.907 49.16 126.747 48.088H125.619C125.555 47.784 125.555 47.488 125.619 47.2C126.387 47.2 127.131 47.176 127.851 47.128C128.571 47.08 129.299 46.992 130.035 46.864C129.939 47.232 129.867 47.712 129.819 48.304C129.771 48.88 129.731 49.472 129.699 50.08C129.683 50.672 129.675 51.192 129.675 51.64V54.808C129.675 55.416 129.803 55.944 130.059 56.392C130.315 56.824 130.763 57.04 131.403 57.04C131.931 57.04 132.403 56.896 132.819 56.608C133.235 56.32 133.611 55.904 133.947 55.36ZM138.075 57.112C138.139 57.4 138.139 57.696 138.075 58C137.323 58 136.619 58.024 135.963 58.072C135.323 58.12 134.651 58.208 133.947 58.336C134.011 58.08 134.059 57.776 134.091 57.424C134.139 57.056 134.171 56.728 134.187 56.44L133.947 55.36V51.64C133.947 50.344 133.867 49.16 133.707 48.088H132.507C132.443 47.784 132.443 47.488 132.507 47.2C133.291 47.2 134.051 47.176 134.787 47.128C135.523 47.08 136.259 46.992 136.995 46.864C136.899 47.232 136.827 47.712 136.779 48.304C136.731 48.88 136.691 49.472 136.659 50.08C136.643 50.672 136.635 51.192 136.635 51.64V53.56C136.635 54.84 136.715 56.024 136.875 57.112H138.075ZM145.42 58.36C144.316 58.36 143.34 58.136 142.492 57.688C141.66 57.224 141.012 56.56 140.548 55.696C140.1 54.832 139.876 53.784 139.876 52.552C139.876 51.352 140.124 50.328 140.62 49.48C141.116 48.632 141.804 47.984 142.684 47.536C143.58 47.072 144.62 46.84 145.804 46.84C146.572 46.84 147.244 46.92 147.82 47.08C148.396 47.224 148.9 47.424 149.332 47.68V51.28C149.076 51.328 148.82 51.328 148.564 51.28C148.276 50.112 147.892 49.24 147.412 48.664C146.948 48.088 146.364 47.8 145.66 47.8C145.004 47.8 144.468 47.992 144.052 48.376C143.652 48.76 143.356 49.312 143.164 50.032C142.972 50.736 142.876 51.576 142.876 52.552C142.876 53.464 143.004 54.264 143.26 54.952C143.532 55.64 143.9 56.168 144.364 56.536C144.844 56.904 145.388 57.088 145.996 57.088C146.412 57.088 146.788 57.032 147.124 56.92C147.46 56.808 147.796 56.624 148.132 56.368C148.468 56.096 148.828 55.736 149.212 55.288C149.356 55.368 149.484 55.464 149.596 55.576C149.708 55.672 149.82 55.784 149.932 55.912C149.484 56.472 149.036 56.936 148.588 57.304C148.14 57.656 147.66 57.92 147.148 58.096C146.652 58.272 146.076 58.36 145.42 58.36ZM155.311 58.36C154.223 58.36 153.327 58.08 152.623 57.52C151.919 56.96 151.567 56.176 151.567 55.168C151.567 54.416 151.767 53.8 152.167 53.32C152.567 52.824 153.111 52.448 153.799 52.192C154.503 51.936 155.279 51.808 156.127 51.808C156.703 51.808 157.191 51.856 157.591 51.952C157.991 52.032 158.351 52.136 158.671 52.264V53.248C158.095 52.976 157.471 52.84 156.799 52.84C156.111 52.84 155.527 53.032 155.047 53.416C154.567 53.784 154.327 54.352 154.327 55.12C154.327 55.776 154.487 56.296 154.807 56.68C155.127 57.048 155.567 57.232 156.127 57.232C156.655 57.232 157.127 57.112 157.543 56.872C157.959 56.616 158.335 56.312 158.671 55.96L158.863 56.968C158.447 57.368 157.959 57.704 157.399 57.976C156.839 58.232 156.143 58.36 155.311 58.36ZM161.359 50.632V55.84C161.359 56.368 161.479 56.72 161.719 56.896C161.959 57.072 162.327 57.16 162.823 57.16C162.871 57.448 162.871 57.744 162.823 58.048C162.519 58.112 162.207 58.16 161.887 58.192C161.583 58.224 161.303 58.24 161.047 58.24C160.391 58.24 159.887 58.128 159.535 57.904C159.199 57.68 158.975 57.368 158.863 56.968L158.671 55.96V50.656C158.671 49.76 158.527 49.048 158.239 48.52C157.951 47.992 157.463 47.728 156.775 47.728C156.119 47.728 155.623 47.952 155.287 48.4C154.967 48.848 154.847 49.464 154.927 50.248H152.167C152.167 49.624 152.343 49.056 152.695 48.544C153.063 48.032 153.599 47.624 154.303 47.32C155.023 47 155.911 46.84 156.967 46.84C158.503 46.84 159.615 47.168 160.303 47.824C161.007 48.464 161.359 49.4 161.359 50.632ZM168.663 58.36C167.703 58.36 166.943 58.168 166.383 57.784C165.839 57.384 165.567 56.68 165.567 55.672V50.56C165.567 50.064 165.559 49.536 165.543 48.976C165.543 48.416 165.527 47.856 165.495 47.296C165.479 46.736 165.431 46.2 165.351 45.688C165.671 45.608 165.983 45.48 166.287 45.304C166.607 45.112 166.887 44.888 167.127 44.632C167.367 44.376 167.535 44.112 167.631 43.84C167.887 43.792 168.143 43.792 168.399 43.84C168.335 44.96 168.295 46.08 168.279 47.2C168.279 48.32 168.279 49.448 168.279 50.584V55.624C168.279 56.2 168.367 56.6 168.543 56.824C168.719 57.048 168.975 57.16 169.311 57.16C169.551 57.16 169.791 57.104 170.031 56.992C170.287 56.88 170.511 56.72 170.703 56.512C170.831 56.592 170.943 56.688 171.039 56.8C171.135 56.912 171.231 57.032 171.327 57.16C171.039 57.496 170.687 57.776 170.271 58C169.871 58.24 169.335 58.36 168.663 58.36ZM163.887 48.208C163.839 47.872 163.839 47.536 163.887 47.2H171.039C171.087 47.536 171.087 47.872 171.039 48.208H163.887ZM178.566 57.16C178.63 57.448 178.63 57.744 178.566 58.048C178.022 58.016 177.494 58 176.982 58C176.486 58 176.014 58 175.566 58C175.118 58 174.638 58 174.126 58C173.63 58 173.102 58.016 172.542 58.048C172.478 57.744 172.478 57.448 172.542 57.16H173.958C174.038 56.584 174.094 56.008 174.126 55.432C174.174 54.84 174.198 54.216 174.198 53.56V51.64C174.198 50.344 174.118 49.16 173.958 48.088H172.662C172.598 47.784 172.598 47.488 172.662 47.2C173.43 47.2 174.198 47.176 174.966 47.128C175.75 47.08 176.518 46.992 177.27 46.864C177.174 47.232 177.102 47.712 177.054 48.304C177.006 48.88 176.966 49.472 176.934 50.08C176.918 50.672 176.91 51.192 176.91 51.64V53.56C176.91 54.216 176.926 54.84 176.958 55.432C177.006 56.008 177.07 56.584 177.15 57.16H178.566ZM175.566 41.68L177.078 42.496V44.224L175.566 45.04L174.078 44.224V42.472L175.566 41.68ZM185.779 47.8C185.203 47.8 184.723 47.976 184.339 48.328C183.971 48.68 183.691 49.192 183.499 49.864C183.323 50.536 183.235 51.352 183.235 52.312C183.235 53.32 183.331 54.208 183.523 54.976C183.731 55.744 184.035 56.344 184.435 56.776C184.851 57.192 185.379 57.4 186.019 57.4L185.899 58.36C184.811 58.36 183.835 58.136 182.971 57.688C182.123 57.224 181.451 56.56 180.955 55.696C180.475 54.816 180.235 53.768 180.235 52.552C180.235 51.368 180.475 50.352 180.955 49.504C181.435 48.64 182.099 47.984 182.947 47.536C183.811 47.072 184.795 46.84 185.899 46.84L185.779 47.8ZM186.019 57.4C186.611 57.4 187.091 57.224 187.459 56.872C187.843 56.504 188.123 55.984 188.299 55.312C188.491 54.64 188.587 53.832 188.587 52.888C188.587 51.848 188.483 50.952 188.275 50.2C188.083 49.432 187.779 48.84 187.363 48.424C186.963 48.008 186.435 47.8 185.779 47.8L185.899 46.84C187.003 46.84 187.979 47.072 188.827 47.536C189.675 47.984 190.347 48.64 190.843 49.504C191.339 50.368 191.587 51.416 191.587 52.648C191.587 53.816 191.347 54.832 190.867 55.696C190.387 56.544 189.715 57.2 188.851 57.664C188.003 58.128 187.019 58.36 185.899 58.36L186.019 57.4ZM193.426 58.048C193.362 57.744 193.362 57.448 193.426 57.16H194.722C194.802 56.584 194.858 56.008 194.89 55.432C194.938 54.84 194.962 54.216 194.962 53.56V51.64C194.962 50.344 194.882 49.16 194.722 48.088H193.546C193.482 47.784 193.482 47.488 193.546 47.2C194.282 47.2 194.97 47.176 195.61 47.128C196.266 47.08 196.954 46.992 197.674 46.864C197.594 47.104 197.538 47.408 197.506 47.776C197.474 48.128 197.45 48.456 197.434 48.76L197.674 49.84V53.56C197.674 54.216 197.69 54.84 197.722 55.432C197.77 56.008 197.834 56.584 197.914 57.16H199.21C199.274 57.448 199.274 57.744 199.21 58.048C198.698 58.016 198.202 58 197.722 58C197.242 58 196.778 58 196.33 58C195.882 58 195.418 58 194.938 58C194.458 58 193.954 58.016 193.426 58.048ZM200.626 58.048C200.562 57.744 200.562 57.448 200.626 57.16H201.922C202.002 56.584 202.058 56.008 202.09 55.432C202.138 54.84 202.162 54.216 202.162 53.56V50.392C202.162 49.768 202.026 49.24 201.754 48.808C201.498 48.376 201.026 48.16 200.338 48.16C199.778 48.16 199.274 48.304 198.826 48.592C198.394 48.88 198.01 49.296 197.674 49.84L197.434 48.76C197.818 48.2 198.346 47.744 199.018 47.392C199.69 47.024 200.506 46.84 201.466 46.84C202.442 46.84 203.194 47.032 203.722 47.416C204.266 47.784 204.682 48.304 204.97 48.976C204.938 49.216 204.914 49.48 204.898 49.768C204.882 50.04 204.874 50.296 204.874 50.536V53.56C204.874 54.216 204.89 54.84 204.922 55.432C204.97 56.008 205.034 56.584 205.114 57.16H206.41C206.474 57.448 206.474 57.744 206.41 58.048C205.898 58.016 205.402 58 204.922 58C204.442 58 203.978 58 203.53 58C203.082 58 202.618 58 202.138 58C201.658 58 201.154 58.016 200.626 58.048Z" fill="white" fill-opacity="0.7"/>
</svg>
