<svg width="49" height="48" viewBox="0 0 49 48" fill="none" xmlns="http://www.w3.org/2000/svg">
<path d="M45.95 41.9205H45.31C45.4166 39.7872 45.15 37.9205 44.51 36.3205V33.2805C44.51 31.8939 44.1366 30.6672 43.39 29.6005L39.07 22.8805C38.5366 22.0272 37.87 21.3339 37.07 20.8005C36.27 20.2672 35.39 19.9472 34.43 19.8405L28.03 18.8805V17.9205C28.8833 17.7072 29.5766 17.2539 30.11 16.5605C30.6433 15.8672 30.91 15.0939 30.91 14.2405V5.28055C30.91 4.21388 30.5633 3.30721 29.87 2.56055C29.1766 1.81388 28.2966 1.44055 27.23 1.44055H16.67C16.4566 1.44055 16.2966 1.52055 16.19 1.68055C16.0833 1.84055 16.03 2.02721 16.03 2.24055V5.28055C16.03 6.13388 16.2966 6.90722 16.83 7.60055C17.3633 8.29388 18.0566 8.74722 18.91 8.96055V14.2405C19.0166 15.0939 19.3366 15.8672 19.87 16.5605C20.4033 17.2539 21.0966 17.7072 21.95 17.9205V18.8805L20.03 19.2005C19.9233 18.5605 19.6033 18.1072 19.07 17.8405C18.5366 17.5739 18.0033 17.4939 17.47 17.6005L16.67 17.7605C16.1366 17.8672 15.6833 18.1339 15.31 18.5605C14.9366 18.9872 14.75 19.4672 14.75 20.0005C13.15 20.4272 11.87 21.3872 10.91 22.8805L6.58998 29.6005C5.84331 30.6672 5.46998 31.8939 5.46998 33.2805V36.3205C4.82998 37.9205 4.56331 39.8405 4.66998 42.0805H4.02998C3.81665 42.0805 3.62998 42.1339 3.46998 42.2405C3.30998 42.3472 3.22998 42.5072 3.22998 42.7205V45.7605C3.22998 45.9739 3.30998 46.1605 3.46998 46.3205C3.62998 46.4805 3.81665 46.5605 4.02998 46.5605H45.95C46.1633 46.5605 46.35 46.4805 46.51 46.3205C46.67 46.1605 46.75 45.9739 46.75 45.7605V42.7205C46.75 42.5072 46.67 42.3205 46.51 42.1605C46.35 42.0005 46.1633 41.9205 45.95 41.9205ZM26.43 41.9205C28.5633 39.3605 31.7633 37.6005 36.03 36.6405C38.1633 36.2139 40.35 36.0005 42.59 36.0005C43.0166 36.6405 43.3366 37.3872 43.55 38.2405C41.5233 38.3472 39.55 38.6139 37.63 39.0405C37.31 39.1472 37.0966 39.3339 36.99 39.6005C36.8833 39.8672 36.9366 40.1072 37.15 40.3205C37.3633 40.5339 37.63 40.5872 37.95 40.4805C39.87 40.0539 41.79 39.7872 43.71 39.6805C43.8166 40.4272 43.87 41.1739 43.87 41.9205H26.43ZM37.79 23.6805L42.11 30.4005C42.75 31.2539 43.0166 32.2139 42.91 33.2805V34.5605C41.4166 34.4539 39.9233 34.5072 38.43 34.7205V32.9605C38.43 32.8539 38.43 32.7472 38.43 32.6405L34.59 27.3605C34.3766 27.1472 34.1366 27.0405 33.87 27.0405C33.6033 27.0405 33.4166 27.1739 33.31 27.4405C33.2033 27.7072 33.2033 27.9472 33.31 28.1605L36.99 33.2805V34.8805L35.87 35.2005C30.9633 36.2672 27.3366 38.3472 24.99 41.4405C23.9233 39.8405 22.4833 38.5072 20.67 37.4405H21.95C22.59 37.4405 23.1233 37.2272 23.55 36.8005C23.9766 36.3739 24.19 35.8405 24.19 35.2005V32.3205C24.19 31.7872 24.0566 31.3072 23.79 30.8805C23.5233 30.4539 23.1233 30.1872 22.59 30.0805L20.35 20.6405L21.95 20.3205C22.0566 20.9605 22.3233 21.4939 22.75 21.9205C23.1766 22.3472 23.6566 22.5605 24.19 22.5605H25.79C26.3233 22.5605 26.8033 22.3472 27.23 21.9205C27.6566 21.4939 27.9233 20.9605 28.03 20.3205L34.27 21.2805C35.7633 21.6005 36.9366 22.4005 37.79 23.6805ZM20.99 29.9205H18.75L17.15 23.5205L19.39 23.0405L20.99 29.9205ZM18.27 31.5205H21.95C22.1633 31.5205 22.35 31.6005 22.51 31.7605C22.67 31.9205 22.75 32.1072 22.75 32.3205V35.2005C22.75 35.4139 22.67 35.6005 22.51 35.7605C22.35 35.9205 22.1633 36.0005 21.95 36.0005H18.27V31.5205ZM26.43 17.9205V20.3205C26.43 20.5339 26.3766 20.6939 26.27 20.8005C26.1633 20.9072 26.0033 20.9605 25.79 20.9605H24.19C23.9766 20.9605 23.8166 20.9072 23.71 20.8005C23.6033 20.6939 23.55 20.5339 23.55 20.3205V17.9205H26.43ZM17.47 5.28055V3.04055H27.23C27.87 3.04055 28.4033 3.25388 28.83 3.68055C29.2566 4.10722 29.47 4.64055 29.47 5.28055V7.52055H19.71C19.07 7.52055 18.5366 7.30721 18.11 6.88055C17.6833 6.45388 17.47 5.92055 17.47 5.28055ZM20.51 14.2405V8.96055H29.47V14.2405C29.47 14.8805 29.2566 15.4139 28.83 15.8405C28.4033 16.2672 27.87 16.4805 27.23 16.4805H22.75C22.11 16.4805 21.5766 16.2672 21.15 15.8405C20.7233 15.4139 20.51 14.8805 20.51 14.2405ZM16.51 19.5205C16.6166 19.3072 16.7766 19.2005 16.99 19.2005L17.79 19.0405C17.8966 18.9339 18.0566 18.9605 18.27 19.1205C18.4833 19.2805 18.59 19.4139 18.59 19.5205L19.07 21.6005L16.83 22.0805L16.35 20.1605C16.2433 19.9472 16.2966 19.7339 16.51 19.5205ZM7.86998 30.4005L12.19 23.6805C12.9366 22.6139 13.8966 21.8672 15.07 21.4405L17.31 29.9205H14.43L15.07 28.9605C15.2833 28.6405 15.31 28.3739 15.15 28.1605C14.99 27.9472 14.7766 27.8139 14.51 27.7605C14.2433 27.7072 14.0033 27.8405 13.79 28.1605L12.35 30.4005C12.2433 30.6139 12.2433 30.8539 12.35 31.1205C12.4566 31.3872 12.67 31.5205 12.99 31.5205H16.67V35.8405C16.03 35.5205 15.2833 35.3072 14.43 35.2005C11.9766 34.6672 9.52331 34.4539 7.06998 34.5605V33.2805C6.96331 32.2139 7.22998 31.2539 7.86998 30.4005ZM6.26998 39.6805C8.18998 39.7872 10.11 40.0539 12.03 40.4805C12.35 40.5872 12.6166 40.5339 12.83 40.3205C13.0433 40.1072 13.0966 39.8672 12.99 39.6005C12.8833 39.3339 12.67 39.1472 12.35 39.0405C10.43 38.6139 8.45665 38.3472 6.42998 38.2405C6.64331 37.3872 6.96331 36.6405 7.38998 36.0005C9.62998 36.0005 11.87 36.2139 14.11 36.6405C18.4833 37.6005 21.63 39.3605 23.55 41.9205H6.10998C6.10998 41.1739 6.16331 40.4272 6.26998 39.6805ZM45.31 44.9605H4.66998V43.5205H45.31V44.9605Z" fill="white"/>
</svg>
