<svg width="167" height="52" viewBox="0 0 167 52" fill="none" xmlns="http://www.w3.org/2000/svg">
<path d="M0 0.5V51.375H50.875V0.5H0ZM4.625 5.125H46.25V46.75H4.625V5.125ZM9.25 9.75V42.125H23.125V32.875H32.375V23.625H41.625V9.75H9.25ZM13.875 14.375H37V19H27.75V28.25H18.5V37.5H13.875V14.375Z" fill="white" fill-opacity="0.7"/>
<path d="M70.8555 5.98828H82.7598V8.22461H76.5098L76.5 12.4336H81.0898V14.6699H76.5V20.5H70.8555V5.98828ZM84.3223 13.2148C84.3223 12.1146 84.498 11.1087 84.8496 10.1973C85.2012 9.2793 85.7253 8.49154 86.4219 7.83398C87.1185 7.17643 87.9876 6.66536 89.0293 6.30078C90.071 5.9362 91.2819 5.75391 92.6621 5.75391C94.0423 5.75391 95.2533 5.9362 96.2949 6.30078C97.3366 6.66536 98.2057 7.17643 98.9023 7.83398C99.599 8.49154 100.123 9.2793 100.475 10.1973C100.826 11.1087 101.002 12.1146 101.002 13.2148C101.002 14.3281 100.826 15.347 100.475 16.2715C100.123 17.196 99.599 17.987 98.9023 18.6445C98.2057 19.3021 97.3366 19.8132 96.2949 20.1777C95.2533 20.5423 94.0423 20.7246 92.6621 20.7246C91.2819 20.7246 90.071 20.5423 89.0293 20.1777C87.9876 19.8132 87.1185 19.3021 86.4219 18.6445C85.7253 17.987 85.2012 17.196 84.8496 16.2715C84.498 15.347 84.3223 14.3281 84.3223 13.2148ZM92.6621 18.7031C93.0527 18.7031 93.3978 18.6348 93.6973 18.498C93.9967 18.3613 94.2474 18.0944 94.4492 17.6973C94.651 17.3001 94.804 16.7435 94.9082 16.0273C95.0124 15.3112 95.0645 14.3737 95.0645 13.2148C95.0645 12.069 95.0124 11.1413 94.9082 10.4316C94.804 9.72201 94.651 9.17188 94.4492 8.78125C94.2474 8.39062 93.9967 8.12695 93.6973 7.99023C93.3978 7.85352 93.0527 7.78516 92.6621 7.78516C92.2715 7.78516 91.9232 7.85352 91.6172 7.99023C91.3177 8.12695 91.0671 8.39062 90.8652 8.78125C90.6634 9.17188 90.5104 9.72201 90.4062 10.4316C90.3021 11.1413 90.25 12.069 90.25 13.2148C90.25 14.3737 90.3021 15.3112 90.4062 16.0273C90.5104 16.7435 90.6634 17.3001 90.8652 17.6973C91.0671 18.0944 91.3177 18.3613 91.6172 18.498C91.9232 18.6348 92.2715 18.7031 92.6621 18.7031ZM107.008 13.5273L102.301 5.98828H108.678L111.51 10.5195L114.4 5.98828H116.949L112.711 12.4531L117.75 20.5L111.373 20.5098L108.189 15.4316L104.898 20.5098H102.34L107.008 13.5273ZM119.703 5.98828H125.348V15.207C125.348 15.7279 125.416 16.1803 125.553 16.5645C125.696 16.9421 125.891 17.2578 126.139 17.5117C126.393 17.7591 126.689 17.9447 127.027 18.0684C127.366 18.1921 127.73 18.2539 128.121 18.2539C128.551 18.2539 128.935 18.1921 129.273 18.0684C129.618 17.9447 129.911 17.7559 130.152 17.502C130.393 17.248 130.579 16.929 130.709 16.5449C130.839 16.1608 130.904 15.7083 130.904 15.1875V5.98828H133.053V14.8555C133.053 15.7539 132.906 16.5645 132.613 17.2871C132.327 18.0098 131.917 18.6283 131.383 19.1426C130.849 19.6504 130.204 20.041 129.449 20.3145C128.694 20.5879 127.851 20.7246 126.92 20.7246C125.65 20.7246 124.56 20.5911 123.648 20.3242C122.737 20.0508 121.988 19.6634 121.402 19.1621C120.816 18.6543 120.387 18.0423 120.113 17.3262C119.84 16.61 119.703 15.8027 119.703 14.9043V5.98828ZM136.227 17.2773C136.917 17.6289 137.639 17.8926 138.395 18.0684C139.15 18.2441 139.853 18.332 140.504 18.332C141.253 18.332 141.799 18.2246 142.145 18.0098C142.496 17.7949 142.672 17.502 142.672 17.1309C142.672 17.0137 142.649 16.8932 142.604 16.7695C142.564 16.6458 142.483 16.5254 142.359 16.4082C142.242 16.2845 142.076 16.1641 141.861 16.0469C141.653 15.9232 141.38 15.8027 141.041 15.6855L139.293 15.0898C138.043 14.6602 137.102 14.0807 136.471 13.3516C135.839 12.6159 135.523 11.7435 135.523 10.7344C135.523 10.0833 135.66 9.45833 135.934 8.85938C136.207 8.25391 136.62 7.72331 137.174 7.26758C137.727 6.80534 138.424 6.4375 139.264 6.16406C140.11 5.89062 141.1 5.75391 142.232 5.75391C142.792 5.75391 143.329 5.78646 143.844 5.85156C144.358 5.91667 144.84 6.0013 145.289 6.10547C145.745 6.20964 146.161 6.33008 146.539 6.4668C146.917 6.59701 147.249 6.72721 147.535 6.85742L146.48 8.76172C146.272 8.63151 146.051 8.51758 145.816 8.41992C145.589 8.32227 145.357 8.24089 145.123 8.17578C144.895 8.11068 144.671 8.06185 144.449 8.0293C144.228 7.99674 144.026 7.98047 143.844 7.98047C143.531 7.98047 143.258 8.02279 143.023 8.10742C142.789 8.18555 142.59 8.29297 142.428 8.42969C142.271 8.5599 142.151 8.70964 142.066 8.87891C141.988 9.04167 141.949 9.20443 141.949 9.36719C141.949 9.51042 141.982 9.65039 142.047 9.78711C142.118 9.91732 142.236 10.0475 142.398 10.1777C142.568 10.3014 142.786 10.4284 143.053 10.5586C143.326 10.6823 143.665 10.8125 144.068 10.9492L145.24 11.3398C146.51 11.763 147.48 12.3457 148.15 13.0879C148.821 13.8301 149.156 14.7285 149.156 15.7832C149.156 16.4993 148.993 17.1602 148.668 17.7656C148.349 18.3711 147.87 18.8952 147.232 19.3379C146.594 19.7741 145.8 20.1159 144.85 20.3633C143.906 20.6042 142.809 20.7246 141.559 20.7246C140.96 20.7246 140.38 20.6921 139.82 20.627C139.267 20.5684 138.723 20.4772 138.189 20.3535C137.662 20.2298 137.141 20.0736 136.627 19.8848C136.113 19.696 135.598 19.4746 135.084 19.2207L136.227 17.2773ZM70.0059 38.2539C70.0059 37.5638 70.0938 36.8997 70.2695 36.2617C70.4518 35.6172 70.7155 35.0182 71.0605 34.4648C71.4056 33.9115 71.8288 33.4069 72.3301 32.9512C72.8314 32.4954 73.401 32.1048 74.0391 31.7793C74.6836 31.4538 75.3932 31.2031 76.168 31.0273C76.9427 30.8451 77.776 30.7539 78.668 30.7539C79.2409 30.7539 79.7878 30.7897 80.3086 30.8613C80.8359 30.9329 81.3307 31.0339 81.793 31.1641C82.2552 31.2878 82.6816 31.4342 83.0723 31.6035C83.4694 31.7663 83.8275 31.9388 84.1465 32.1211L83.3066 33.7617C82.9421 33.5859 82.5254 33.4395 82.0566 33.3223C81.5944 33.1986 81.1126 33.1367 80.6113 33.1367C79.9408 33.1367 79.319 33.2572 78.7461 33.498C78.1732 33.7389 77.6784 34.0807 77.2617 34.5234C76.8451 34.9661 76.5163 35.5033 76.2754 36.1348C76.041 36.7598 75.9238 37.4629 75.9238 38.2441C75.9238 39.0189 76.041 39.722 76.2754 40.3535C76.5098 40.9785 76.832 41.5156 77.2422 41.9648C77.6589 42.4076 78.1504 42.7526 78.7168 43C79.2897 43.2409 79.9082 43.3613 80.5723 43.3613C81.041 43.3613 81.5098 43.306 81.9785 43.1953C82.4473 43.0781 82.877 42.9251 83.2676 42.7363L84.1074 44.377C83.7884 44.5658 83.4336 44.7415 83.043 44.9043C82.6523 45.0671 82.2292 45.2135 81.7734 45.3438C81.3177 45.4674 80.8294 45.5651 80.3086 45.6367C79.7878 45.7083 79.2409 45.7441 78.668 45.7441C77.3333 45.7441 76.1289 45.5488 75.0547 45.1582C73.987 44.7611 73.0788 44.224 72.3301 43.5469C71.5814 42.8633 71.0052 42.069 70.6016 41.1641C70.2044 40.2526 70.0059 39.2826 70.0059 38.2539ZM86.4023 30.9883H98.668V33.2246H92.0566L92.0469 37.1406H97.1055V39.377H92.0469V43.2637H98.668V45.5H86.4023V30.9883ZM101.578 30.9883H105.113L114.322 38.7227L114.332 30.9883H116.48V45.5H112.945L103.727 37.7949V45.5H101.578V30.9883ZM122.74 33.2148H118.6V30.9785H132.525V33.2148H128.385V45.5H122.74V33.2148ZM134.645 30.9883H146.91V33.2246H140.299L140.289 37.1406H145.348V39.377H140.289V43.2637H146.91V45.5H134.645V30.9883ZM149.82 30.9883H158.189C159.27 30.9883 160.214 31.1022 161.021 31.3301C161.835 31.5579 162.512 31.877 163.053 32.2871C163.6 32.6973 164.01 33.1888 164.283 33.7617C164.557 34.3346 164.693 34.9661 164.693 35.6562C164.693 36.5091 164.492 37.2676 164.088 37.9316C163.684 38.5892 163.085 39.1133 162.291 39.5039L165.338 45.5098H158.961L156.656 40.2363H155.465V45.5H149.82V30.9883ZM155.807 38.4688C156.269 38.4688 156.682 38.4036 157.047 38.2734C157.411 38.1432 157.721 37.9609 157.975 37.7266C158.229 37.4857 158.424 37.2025 158.561 36.877C158.697 36.5449 158.766 36.1836 158.766 35.793C158.766 35.4023 158.697 35.0443 158.561 34.7188C158.424 34.3867 158.229 34.1035 157.975 33.8691C157.721 33.6283 157.411 33.4427 157.047 33.3125C156.682 33.1823 156.269 33.1172 155.807 33.1172H155.475L155.465 38.4688H155.807Z" fill="white" fill-opacity="0.7"/>
</svg>
